<svg fill="none"
  xmlns="http://www.w3.org/2000/svg" viewBox="0 0 24 20">
  <path d="M24 15.147c0-2.941-1.917-4.926-4.757-4.926-.71 0-1.278.294-1.42.367.142-3.162 2.698-6.03 5.538-6.544V0c-4.19.441-10.225 4.118-10.225 13.309 0 4.044 2.414 6.691 5.68 6.691C21.8 20 24 17.794 24 15.147Zm-13.136 0c0-2.941-1.988-4.926-4.757-4.926-.71 0-1.35.294-1.492.367.142-3.162 2.699-6.03 5.61-6.544V0C5.965.441 0 4.118 0 13.309 0 17.353 2.343 20 5.68 20c2.983 0 5.184-2.206 5.184-4.853Z" fill="currentColor"/>
</svg>
